# xmcd
#
# Track frame offsets:
#	150
#	16250
#	33611
#	45749
#	61996
#	80823
#	96134
#	108273
#	126258
#
# Disc length: 2040 seconds
#
# Revision: 0
# Processed by: cddbd v1.5.1PL0 Copyright (c) Steve Scherf et al.
# Submitted via: EasyCDDAExtractor 4.5.0.2
#
DISCID=7307f609
DTITLE=the stelle group - at home in exile
DYEAR=2001
DGENRE=Country
TTITLE0=part of won´t 
TTITLE1=register of faith
TTITLE2=new soul
TTITLE3=virginia
TTITLE4=gainesville
TTITLE5=four on the floor
TTITLE6=a headstart to happiness
TTITLE7=Los Angeles an California South
TTITLE8=her disguise
EXTD=
EXTT0=
EXTT1=
EXTT2=
EXTT3=
EXTT4=
EXTT5=
EXTT6=
EXTT7=
EXTT8=
PLAYORDER=
